<?xml version="1.0" standalone="no"?>
<!DOCTYPE svg PUBLIC "-//W3C//DTD SVG 20010904//EN"
 "http://www.w3.org/TR/2001/REC-SVG-20010904/DTD/svg10.dtd">
<svg version="1.0" xmlns="http://www.w3.org/2000/svg"
 width="700.000000pt" height="700.000000pt" viewBox="0 0 700.000000 700.000000"
 preserveAspectRatio="xMidYMid meet">
<metadata>
Created by potrace 1.14, written by Peter Selinger 2001-2017
</metadata>
<g transform="translate(0.000000,700.000000) scale(0.100000,-0.100000)"
fill="#000000" stroke="none">
<path d="M3431 5772 c-34 -97 -75 -213 -91 -257 -43 -120 -118 -326 -161 -447
-22 -60 -57 -156 -78 -215 -49 -135 -204 -567 -277 -773 -31 -85 -62 -171 -70
-190 -7 -19 -68 -188 -135 -375 -66 -187 -132 -368 -145 -402 -13 -34 -24 -67
-24 -74 0 -31 -26 29 -175 404 -88 218 -162 397 -166 397 -4 0 -9 -10 -12 -22
-3 -13 -26 -77 -52 -143 -26 -66 -78 -203 -117 -305 -39 -102 -79 -207 -90
-235 -11 -27 -25 -68 -33 -90 -7 -22 -41 -112 -75 -200 -34 -88 -74 -194 -90
-235 -15 -41 -73 -196 -130 -345 -57 -148 -113 -297 -125 -330 -13 -33 -60
-157 -105 -275 -45 -118 -95 -249 -110 -290 -22 -62 -85 -226 -115 -302 -7
-17 114 -18 2444 -18 l2451 0 -66 127 c-37 71 -90 173 -119 228 -29 55 -87
168 -130 250 -43 83 -101 195 -130 250 -29 55 -92 177 -140 270 -77 149 -125
240 -142 269 -3 4 -39 -43 -79 -105 -40 -63 -79 -122 -86 -132 -7 -9 -40 -60
-73 -112 -33 -52 -63 -95 -67 -95 -5 0 -25 48 -33 80 -1 3 -4 12 -8 20 -3 8
-28 78 -56 155 -27 77 -90 253 -139 390 -50 138 -127 354 -172 480 -44 127
-85 239 -90 250 -4 11 -34 92 -65 180 -31 88 -65 183 -75 210 -10 28 -32 88
-49 135 -16 47 -60 168 -96 270 -37 102 -78 215 -91 253 -13 37 -35 97 -48
135 -14 37 -45 124 -70 195 -25 70 -67 184 -92 255 -56 156 -90 252 -114 317
-10 28 -29 82 -43 120 -28 81 -100 279 -149 412 l-34 93 -63 -178z"/>
</g>
</svg>
